<svg width="336" height="108" viewBox="0 0 336 108" fill="none" xmlns="http://www.w3.org/2000/svg">
<path d="M158.962 43.0459H177.037" stroke="black" stroke-width="4" stroke-miterlimit="10" stroke-linecap="round" stroke-linejoin="round"/>
<mask id="mask0_1_2276" style="mask-type:luminance" maskUnits="userSpaceOnUse" x="136" y="0" width="64" height="64">
<path d="M136 7.62939e-06H200V64H136V7.62939e-06Z" fill="white"/>
</mask>
<g mask="url(#mask0_1_2276)">
<path d="M189.087 43.0459H193.104C195.865 43.0459 198.125 40.7864 198.125 38.0251V37.0208C198.125 31.498 193.606 26.9793 188.083 26.9793H142.896C140.134 26.9793 137.875 29.2385 137.875 32V38.0251C137.875 40.7864 140.134 43.0459 142.896 43.0459H146.913" stroke="black" stroke-width="4" stroke-miterlimit="10" stroke-linecap="round" stroke-linejoin="round"/>
<path d="M158.963 43.0459H177.038" stroke="black" stroke-width="4" stroke-miterlimit="10" stroke-linecap="round" stroke-linejoin="round"/>
<path d="M165.992 14.9292V26.9792" stroke="black" stroke-width="4" stroke-miterlimit="10" stroke-linecap="round" stroke-linejoin="round"/>
<path d="M186.075 26.9792L182.295 19.4201C181.06 16.9502 177.79 14.9292 175.029 14.9292H156.954C154.193 14.9292 150.923 16.9502 149.688 19.4201L145.908 26.9792" stroke="black" stroke-width="4" stroke-miterlimit="10" stroke-linecap="round" stroke-linejoin="round"/>
<path d="M189.088 43.0459C189.088 46.3733 186.39 49.0708 183.063 49.0708C179.736 49.0708 177.038 46.3733 177.038 43.0459C177.038 39.7183 179.736 37.0208 183.063 37.0208C186.39 37.0208 189.088 39.7183 189.088 43.0459Z" stroke="black" stroke-width="4" stroke-miterlimit="10" stroke-linecap="round" stroke-linejoin="round"/>
<path d="M158.963 43.0459C158.963 46.3733 156.265 49.0708 152.938 49.0708C149.611 49.0708 146.913 46.3733 146.913 43.0459C146.913 39.7183 149.611 37.0208 152.938 37.0208C156.265 37.0208 158.963 39.7183 158.963 43.0459Z" stroke="black" stroke-width="4" stroke-miterlimit="10" stroke-linecap="round" stroke-linejoin="round"/>
<path d="M197.922 35.0125H195.112" stroke="black" stroke-width="4" stroke-miterlimit="10" stroke-linecap="round" stroke-linejoin="round"/>
<path d="M169.004 35.0125H166.996" stroke="black" stroke-width="4" stroke-miterlimit="10" stroke-linecap="round" stroke-linejoin="round"/>
</g>
<path d="M134.991 101.632C134.687 102.656 134.207 103.512 133.551 104.2C132.895 104.888 132.119 105.4 131.223 105.736C130.327 106.072 129.343 106.24 128.271 106.24C126.703 106.24 125.343 105.912 124.191 105.256C123.055 104.6 122.175 103.664 121.551 102.448C120.943 101.232 120.639 99.776 120.639 98.08C120.639 96.384 120.943 94.928 121.551 93.712C122.175 92.496 123.055 91.56 124.191 90.904C125.343 90.248 126.687 89.92 128.223 89.92C129.311 89.92 130.295 90.072 131.175 90.376C132.055 90.664 132.799 91.112 133.407 91.72C134.031 92.328 134.487 93.096 134.775 94.024L131.775 95.296C131.503 94.336 131.087 93.656 130.527 93.256C129.967 92.84 129.247 92.632 128.367 92.632C127.503 92.632 126.743 92.84 126.087 93.256C125.447 93.672 124.951 94.288 124.599 95.104C124.247 95.904 124.071 96.896 124.071 98.08C124.071 99.248 124.231 100.24 124.551 101.056C124.887 101.872 125.375 102.488 126.015 102.904C126.655 103.32 127.439 103.528 128.367 103.528C129.231 103.528 129.975 103.296 130.599 102.832C131.239 102.368 131.687 101.664 131.943 100.72L134.991 101.632ZM142.95 93.76C144.166 93.76 145.23 94.008 146.142 94.504C147.07 95 147.79 95.712 148.302 96.64C148.83 97.568 149.094 98.688 149.094 100C149.094 101.296 148.83 102.416 148.302 103.36C147.79 104.288 147.07 105 146.142 105.496C145.23 105.992 144.166 106.24 142.95 106.24C141.75 106.24 140.686 105.992 139.758 105.496C138.83 105 138.102 104.288 137.574 103.36C137.062 102.416 136.806 101.296 136.806 100C136.806 98.688 137.062 97.568 137.574 96.64C138.102 95.712 138.83 95 139.758 94.504C140.686 94.008 141.75 93.76 142.95 93.76ZM142.95 96.208C142.342 96.208 141.822 96.352 141.39 96.64C140.974 96.912 140.654 97.328 140.43 97.888C140.206 98.448 140.094 99.152 140.094 100C140.094 100.848 140.206 101.552 140.43 102.112C140.654 102.672 140.974 103.096 141.39 103.384C141.822 103.656 142.342 103.792 142.95 103.792C143.542 103.792 144.046 103.656 144.462 103.384C144.894 103.096 145.222 102.672 145.446 102.112C145.67 101.552 145.782 100.848 145.782 100C145.782 99.152 145.67 98.448 145.446 97.888C145.222 97.328 144.894 96.912 144.462 96.64C144.046 96.352 143.542 96.208 142.95 96.208ZM151.845 106V94H154.797L154.917 96.16C155.317 95.36 155.861 94.76 156.549 94.36C157.253 93.96 158.029 93.76 158.877 93.76C159.741 93.76 160.517 93.96 161.205 94.36C161.909 94.76 162.437 95.352 162.789 96.136C163.045 95.608 163.389 95.168 163.821 94.816C164.253 94.464 164.733 94.2 165.261 94.024C165.789 93.848 166.325 93.76 166.869 93.76C167.653 93.76 168.365 93.92 169.005 94.24C169.661 94.56 170.181 95.04 170.565 95.68C170.949 96.32 171.141 97.136 171.141 98.128V106H167.853V98.776C167.853 97.896 167.661 97.272 167.277 96.904C166.893 96.536 166.397 96.352 165.789 96.352C165.309 96.352 164.861 96.472 164.445 96.712C164.045 96.952 163.725 97.312 163.485 97.792C163.261 98.256 163.149 98.84 163.149 99.544V106H159.861V98.776C159.861 97.896 159.661 97.272 159.261 96.904C158.877 96.536 158.381 96.352 157.773 96.352C157.357 96.352 156.941 96.464 156.525 96.688C156.125 96.912 155.789 97.264 155.517 97.744C155.261 98.224 155.133 98.856 155.133 99.64V106H151.845ZM179.791 88.504C180.351 88.504 180.855 88.568 181.303 88.696C181.767 88.808 182.111 88.952 182.335 89.128L181.879 91.312C181.703 91.2 181.503 91.112 181.279 91.048C181.055 90.984 180.791 90.952 180.487 90.952C179.863 90.952 179.367 91.096 178.999 91.384C178.631 91.656 178.447 92.128 178.447 92.8V94.456L178.591 95.104V106H175.303V92.56C175.303 91.888 175.415 91.296 175.639 90.784C175.863 90.272 176.175 89.848 176.575 89.512C176.975 89.176 177.447 88.928 177.991 88.768C178.551 88.592 179.151 88.504 179.791 88.504ZM182.239 94V96.448H173.215V94H182.239ZM189.473 93.76C190.689 93.76 191.753 94.008 192.665 94.504C193.593 95 194.313 95.712 194.825 96.64C195.353 97.568 195.617 98.688 195.617 100C195.617 101.296 195.353 102.416 194.825 103.36C194.313 104.288 193.593 105 192.665 105.496C191.753 105.992 190.689 106.24 189.473 106.24C188.273 106.24 187.209 105.992 186.281 105.496C185.353 105 184.625 104.288 184.097 103.36C183.585 102.416 183.329 101.296 183.329 100C183.329 98.688 183.585 97.568 184.097 96.64C184.625 95.712 185.353 95 186.281 94.504C187.209 94.008 188.273 93.76 189.473 93.76ZM189.473 96.208C188.865 96.208 188.345 96.352 187.913 96.64C187.497 96.912 187.177 97.328 186.953 97.888C186.729 98.448 186.617 99.152 186.617 100C186.617 100.848 186.729 101.552 186.953 102.112C187.177 102.672 187.497 103.096 187.913 103.384C188.345 103.656 188.865 103.792 189.473 103.792C190.065 103.792 190.569 103.656 190.985 103.384C191.417 103.096 191.745 102.672 191.969 102.112C192.193 101.552 192.305 100.848 192.305 100C192.305 99.152 192.193 98.448 191.969 97.888C191.745 97.328 191.417 96.912 190.985 96.64C190.569 96.352 190.065 96.208 189.473 96.208ZM198.369 106V94H201.225L201.441 96.352C201.761 95.52 202.225 94.88 202.833 94.432C203.457 93.984 204.233 93.76 205.161 93.76C205.433 93.76 205.681 93.784 205.905 93.832C206.129 93.88 206.313 93.944 206.457 94.024L206.073 96.784C205.913 96.72 205.713 96.672 205.473 96.64C205.249 96.608 204.953 96.592 204.585 96.592C204.105 96.592 203.641 96.712 203.193 96.952C202.745 97.176 202.377 97.528 202.089 98.008C201.801 98.472 201.657 99.064 201.657 99.784V106H198.369ZM212.296 90.328V102.088C212.296 102.664 212.44 103.088 212.728 103.36C213.032 103.616 213.44 103.744 213.952 103.744C214.352 103.744 214.704 103.688 215.008 103.576C215.312 103.448 215.584 103.28 215.824 103.072L216.352 105.256C215.968 105.56 215.488 105.8 214.912 105.976C214.336 106.152 213.728 106.24 213.088 106.24C212.288 106.24 211.576 106.12 210.952 105.88C210.344 105.64 209.864 105.256 209.512 104.728C209.176 104.2 209.008 103.496 209.008 102.616V91.24L212.296 90.328ZM216.136 94V96.448H206.8V94H216.136Z" fill="black"/>
</svg>
