<svg width="336" height="112" viewBox="0 0 336 112" fill="none" xmlns="http://www.w3.org/2000/svg">
<g clip-path="url(#clip0_1_2305)">
<mask id="mask0_1_2305" style="mask-type:luminance" maskUnits="userSpaceOnUse" x="136" y="0" width="64" height="64">
<path d="M136 7.62939e-06H200V64H136V7.62939e-06Z" fill="white"/>
</mask>
<g mask="url(#mask0_1_2305)">
<path d="M187.491 16.9956V11.99C187.491 9.23173 185.255 6.99561 182.497 6.99561H143.491C140.73 6.99561 138.491 9.23423 138.491 11.9956C138.491 14.757 140.73 16.9956 143.491 16.9956H192.497C195.255 16.9956 197.491 19.2317 197.491 21.99V29.4956" stroke="black" stroke-width="4" stroke-miterlimit="10"/>
<path d="M197.491 44.4956V52.0012C197.491 54.7595 195.255 56.9956 192.497 56.9956H143.491C140.73 56.9956 138.491 54.7571 138.491 51.9956V11.9956" stroke="black" stroke-width="4" stroke-miterlimit="10"/>
<path d="M197.491 44.4956H184.991C180.849 44.4956 177.491 41.1377 177.491 36.9956C177.491 32.8535 180.849 29.4956 184.991 29.4956H197.491V44.4956Z" stroke="black" stroke-width="4" stroke-miterlimit="10"/>
</g>
</g>
<path d="M131.211 89.92C132.651 89.92 133.915 90.168 135.003 90.664C136.091 91.16 137.019 91.896 137.787 92.872L135.939 95.008C135.283 94.176 134.563 93.568 133.779 93.184C133.011 92.784 132.115 92.584 131.091 92.584C130.419 92.584 129.859 92.672 129.411 92.848C128.979 93.024 128.659 93.256 128.451 93.544C128.259 93.832 128.163 94.152 128.163 94.504C128.163 94.936 128.331 95.304 128.667 95.608C129.003 95.896 129.579 96.136 130.395 96.328L133.347 97C134.915 97.352 136.035 97.88 136.707 98.584C137.395 99.272 137.739 100.168 137.739 101.272C137.739 102.312 137.467 103.208 136.923 103.96C136.379 104.696 135.619 105.264 134.643 105.664C133.667 106.048 132.547 106.24 131.283 106.24C130.179 106.24 129.163 106.112 128.235 105.856C127.323 105.584 126.507 105.216 125.787 104.752C125.067 104.288 124.467 103.752 123.987 103.144L125.859 100.912C126.227 101.424 126.683 101.88 127.227 102.28C127.771 102.68 128.387 103 129.075 103.24C129.779 103.464 130.515 103.576 131.283 103.576C131.939 103.576 132.491 103.504 132.939 103.36C133.403 103.2 133.747 102.984 133.971 102.712C134.211 102.424 134.331 102.08 134.331 101.68C134.331 101.264 134.187 100.912 133.899 100.624C133.627 100.32 133.115 100.088 132.363 99.928L129.147 99.208C128.219 98.984 127.419 98.696 126.747 98.344C126.091 97.976 125.587 97.512 125.235 96.952C124.899 96.376 124.731 95.696 124.731 94.912C124.731 93.968 124.987 93.12 125.499 92.368C126.011 91.616 126.747 91.024 127.707 90.592C128.683 90.144 129.851 89.92 131.211 89.92ZM147.236 98.344C147.236 97.656 147.036 97.12 146.636 96.736C146.252 96.352 145.74 96.16 145.1 96.16C144.508 96.16 143.988 96.312 143.54 96.616C143.092 96.92 142.764 97.424 142.556 98.128L139.748 97.264C140.02 96.208 140.612 95.36 141.524 94.72C142.452 94.08 143.692 93.76 145.244 93.76C146.3 93.76 147.22 93.928 148.004 94.264C148.788 94.584 149.396 95.072 149.828 95.728C150.276 96.384 150.5 97.208 150.5 98.2V103.072C150.5 103.68 150.788 103.984 151.364 103.984C151.636 103.984 151.892 103.944 152.132 103.864L151.94 105.904C151.524 106.112 151.004 106.216 150.38 106.216C149.82 106.216 149.316 106.12 148.868 105.928C148.42 105.736 148.068 105.448 147.812 105.064C147.556 104.664 147.428 104.168 147.428 103.576V103.48L148.004 103.384C147.908 103.992 147.644 104.512 147.212 104.944C146.78 105.36 146.252 105.68 145.628 105.904C145.02 106.128 144.388 106.24 143.732 106.24C142.916 106.24 142.212 106.12 141.62 105.88C141.028 105.624 140.572 105.256 140.252 104.776C139.932 104.296 139.772 103.704 139.772 103C139.772 102.104 140.06 101.376 140.636 100.816C141.212 100.24 142.036 99.848 143.108 99.64L147.62 98.728L147.596 100.768L144.716 101.344C144.172 101.456 143.756 101.608 143.468 101.8C143.196 101.976 143.06 102.272 143.06 102.688C143.06 103.088 143.204 103.392 143.492 103.6C143.796 103.808 144.156 103.912 144.572 103.912C144.908 103.912 145.236 103.872 145.556 103.792C145.876 103.712 146.164 103.584 146.42 103.408C146.676 103.232 146.876 102.992 147.02 102.688C147.164 102.384 147.236 102.016 147.236 101.584V98.344ZM161.58 94H164.988L160.428 106H156.636L152.076 94H155.58L158.556 103.48L161.58 94ZM168.466 92.272C167.778 92.272 167.266 92.128 166.93 91.84C166.594 91.536 166.426 91.096 166.426 90.52C166.426 89.928 166.594 89.488 166.93 89.2C167.266 88.896 167.778 88.744 168.466 88.744C169.154 88.744 169.666 88.896 170.002 89.2C170.338 89.488 170.506 89.928 170.506 90.52C170.506 91.096 170.338 91.536 170.002 91.84C169.666 92.128 169.154 92.272 168.466 92.272ZM170.098 94V106H166.81V94H170.098ZM173.583 106V94H176.535L176.727 97.6L176.319 97.216C176.511 96.432 176.815 95.784 177.231 95.272C177.647 94.76 178.151 94.384 178.743 94.144C179.351 93.888 180.015 93.76 180.735 93.76C181.567 93.76 182.303 93.92 182.943 94.24C183.599 94.56 184.111 95.048 184.479 95.704C184.863 96.344 185.055 97.152 185.055 98.128V106H181.767V99.064C181.767 98.04 181.567 97.336 181.167 96.952C180.767 96.552 180.247 96.352 179.607 96.352C179.159 96.352 178.719 96.464 178.287 96.688C177.871 96.896 177.527 97.24 177.255 97.72C176.999 98.2 176.871 98.84 176.871 99.64V106H173.583ZM199.507 91.144L199.891 93.496C199.827 93.496 199.755 93.496 199.675 93.496C199.611 93.48 199.539 93.472 199.459 93.472C198.723 93.472 198.171 93.64 197.803 93.976C197.435 94.296 197.251 94.744 197.251 95.32L195.907 94.768C195.907 94.128 196.035 93.536 196.291 92.992C196.547 92.432 196.923 91.984 197.419 91.648C197.931 91.312 198.539 91.144 199.243 91.144C199.275 91.144 199.315 91.144 199.363 91.144C199.411 91.144 199.459 91.144 199.507 91.144ZM195.571 103.744C196.867 103.744 197.867 104.024 198.571 104.584C199.275 105.144 199.627 105.928 199.627 106.936C199.627 107.848 199.363 108.616 198.835 109.24C198.307 109.88 197.563 110.36 196.603 110.68C195.659 111 194.563 111.16 193.315 111.16C191.251 111.16 189.739 110.872 188.779 110.296C187.835 109.72 187.363 108.968 187.363 108.04C187.363 107.384 187.611 106.832 188.107 106.384C188.619 105.936 189.459 105.688 190.627 105.64L190.507 106.024C189.675 105.88 189.035 105.608 188.587 105.208C188.155 104.792 187.939 104.224 187.939 103.504C187.939 102.768 188.219 102.168 188.779 101.704C189.355 101.224 190.131 100.944 191.107 100.864L192.547 101.536H192.211C191.523 101.584 191.035 101.728 190.747 101.968C190.475 102.192 190.339 102.448 190.339 102.736C190.339 103.072 190.467 103.328 190.723 103.504C190.995 103.664 191.379 103.744 191.875 103.744H195.571ZM193.339 108.904C194.171 108.904 194.851 108.832 195.379 108.688C195.923 108.544 196.323 108.36 196.579 108.136C196.851 107.912 196.987 107.664 196.987 107.392C196.987 107.088 196.867 106.84 196.627 106.648C196.387 106.472 195.955 106.384 195.331 106.384H191.275C190.891 106.384 190.571 106.48 190.315 106.672C190.075 106.864 189.955 107.128 189.955 107.464C189.955 107.912 190.251 108.264 190.843 108.52C191.451 108.776 192.283 108.904 193.339 108.904ZM193.363 93.76C194.483 93.76 195.451 93.928 196.267 94.264C197.099 94.584 197.731 95.048 198.163 95.656C198.611 96.264 198.835 96.992 198.835 97.84C198.835 98.672 198.611 99.392 198.163 100C197.731 100.608 197.099 101.08 196.267 101.416C195.451 101.736 194.483 101.896 193.363 101.896C191.587 101.896 190.227 101.536 189.283 100.816C188.355 100.08 187.891 99.088 187.891 97.84C187.891 96.992 188.107 96.264 188.539 95.656C188.987 95.048 189.619 94.584 190.435 94.264C191.251 93.928 192.227 93.76 193.363 93.76ZM193.363 95.824C192.723 95.824 192.195 96 191.779 96.352C191.363 96.704 191.155 97.192 191.155 97.816C191.155 98.44 191.363 98.936 191.779 99.304C192.195 99.656 192.723 99.832 193.363 99.832C194.003 99.832 194.523 99.656 194.923 99.304C195.339 98.936 195.547 98.44 195.547 97.816C195.547 97.192 195.339 96.704 194.923 96.352C194.523 96 194.003 95.824 193.363 95.824ZM206.415 106.24C205.199 106.24 204.087 106.024 203.079 105.592C202.087 105.16 201.279 104.552 200.655 103.768L202.551 101.848C202.935 102.424 203.447 102.896 204.087 103.264C204.727 103.632 205.487 103.816 206.367 103.816C206.991 103.816 207.487 103.728 207.855 103.552C208.239 103.36 208.431 103.064 208.431 102.664C208.431 102.408 208.343 102.192 208.167 102.016C207.991 101.824 207.639 101.672 207.111 101.56L204.999 101.128C203.607 100.84 202.615 100.408 202.023 99.832C201.447 99.24 201.159 98.48 201.159 97.552C201.159 96.896 201.351 96.28 201.735 95.704C202.135 95.128 202.727 94.664 203.511 94.312C204.295 93.944 205.271 93.76 206.439 93.76C207.639 93.76 208.679 93.952 209.559 94.336C210.455 94.704 211.159 95.256 211.671 95.992L209.703 97.912C209.351 97.352 208.887 96.928 208.311 96.64C207.751 96.336 207.159 96.184 206.535 96.184C206.087 96.184 205.703 96.232 205.383 96.328C205.063 96.424 204.823 96.56 204.663 96.736C204.503 96.896 204.423 97.104 204.423 97.36C204.423 97.616 204.535 97.84 204.759 98.032C204.983 98.208 205.391 98.36 205.983 98.488L208.431 98.992C209.615 99.232 210.463 99.64 210.975 100.216C211.487 100.776 211.743 101.456 211.743 102.256C211.743 103.024 211.535 103.712 211.119 104.32C210.719 104.912 210.119 105.384 209.319 105.736C208.535 106.072 207.567 106.24 206.415 106.24Z" fill="black"/>
<defs>
<clipPath id="clip0_1_2305">
<rect width="64" height="64" fill="white" transform="translate(136)"/>
</clipPath>
</defs>
</svg>
