<svg width="336" height="112" viewBox="0 0 336 112" fill="none" xmlns="http://www.w3.org/2000/svg">
<g clip-path="url(#clip0_1_2259)">
<mask id="mask0_1_2259" style="mask-type:luminance" maskUnits="userSpaceOnUse" x="136" y="0" width="64" height="64">
<path d="M136 7.62939e-06H200V64H136V7.62939e-06Z" fill="white"/>
</mask>
<g mask="url(#mask0_1_2259)">
<path d="M171.637 43.6267C180.556 44.1072 187.299 46.3221 187.299 48.9818C187.299 51.9928 178.658 54.4337 168 54.4337C157.341 54.4337 148.701 51.9928 148.701 48.9818C148.701 46.3221 155.443 44.1072 164.363 43.6267" stroke="black" stroke-width="4" stroke-miterlimit="10" stroke-linecap="round" stroke-linejoin="round"/>
<path d="M142.362 46.5148C139.518 48.077 137.875 49.9183 137.875 51.8901C137.875 57.5427 151.362 62.125 168 62.125C184.638 62.125 198.125 57.5427 198.125 51.8901C198.125 49.9183 196.482 48.077 193.638 46.5148" stroke="black" stroke-width="4" stroke-miterlimit="10" stroke-linecap="round" stroke-linejoin="round"/>
<path d="M168 21.3639C165.167 21.3639 162.87 19.0668 162.87 16.2333C162.87 13.3997 165.167 11.1025 168 11.1025C170.834 11.1025 173.131 13.3997 173.131 16.2333C173.131 19.0668 170.834 21.3639 168 21.3639ZM168 1.87504C159.41 1.87504 152.445 8.83916 152.445 17.4298C152.445 23.3949 161.161 38.4045 165.544 45.5763C166.667 47.4135 169.334 47.4135 170.457 45.5763C174.84 38.4045 183.556 23.3949 183.556 17.4298C183.556 8.83916 176.591 1.87504 168 1.87504Z" stroke="black" stroke-width="4" stroke-miterlimit="10" stroke-linecap="round" stroke-linejoin="round"/>
</g>
</g>
<path d="M118.976 106H115.544L114.224 102.136H108.152L106.832 106H103.448L109.232 90.16H113.192L118.976 106ZM108.896 99.688H113.48L111.176 92.776L108.896 99.688ZM127.807 94H131.215L126.655 106H122.863L118.303 94H121.807L124.783 103.48L127.807 94ZM139.619 98.344C139.619 97.656 139.419 97.12 139.019 96.736C138.635 96.352 138.123 96.16 137.483 96.16C136.891 96.16 136.371 96.312 135.923 96.616C135.475 96.92 135.147 97.424 134.939 98.128L132.131 97.264C132.403 96.208 132.995 95.36 133.907 94.72C134.835 94.08 136.075 93.76 137.627 93.76C138.683 93.76 139.603 93.928 140.387 94.264C141.171 94.584 141.779 95.072 142.211 95.728C142.659 96.384 142.883 97.208 142.883 98.2V103.072C142.883 103.68 143.171 103.984 143.747 103.984C144.019 103.984 144.275 103.944 144.515 103.864L144.323 105.904C143.907 106.112 143.387 106.216 142.763 106.216C142.203 106.216 141.699 106.12 141.251 105.928C140.803 105.736 140.451 105.448 140.195 105.064C139.939 104.664 139.811 104.168 139.811 103.576V103.48L140.387 103.384C140.291 103.992 140.027 104.512 139.595 104.944C139.163 105.36 138.635 105.68 138.011 105.904C137.403 106.128 136.771 106.24 136.115 106.24C135.299 106.24 134.595 106.12 134.003 105.88C133.411 105.624 132.955 105.256 132.635 104.776C132.315 104.296 132.155 103.704 132.155 103C132.155 102.104 132.443 101.376 133.019 100.816C133.595 100.24 134.419 99.848 135.491 99.64L140.003 98.728L139.979 100.768L137.099 101.344C136.555 101.456 136.139 101.608 135.851 101.8C135.579 101.976 135.443 102.272 135.443 102.688C135.443 103.088 135.587 103.392 135.875 103.6C136.179 103.808 136.539 103.912 136.955 103.912C137.291 103.912 137.619 103.872 137.939 103.792C138.259 103.712 138.547 103.584 138.803 103.408C139.059 103.232 139.259 102.992 139.403 102.688C139.547 102.384 139.619 102.016 139.619 101.584V98.344ZM148.216 92.272C147.528 92.272 147.016 92.128 146.68 91.84C146.344 91.536 146.176 91.096 146.176 90.52C146.176 89.928 146.344 89.488 146.68 89.2C147.016 88.896 147.528 88.744 148.216 88.744C148.904 88.744 149.416 88.896 149.752 89.2C150.088 89.488 150.256 89.928 150.256 90.52C150.256 91.096 150.088 91.536 149.752 91.84C149.416 92.128 148.904 92.272 148.216 92.272ZM149.848 94V106H146.56V94H149.848ZM156.573 88.744V102.304C156.573 102.864 156.669 103.256 156.861 103.48C157.053 103.704 157.373 103.816 157.821 103.816C158.093 103.816 158.317 103.8 158.493 103.768C158.669 103.72 158.893 103.656 159.165 103.576L158.877 105.736C158.605 105.896 158.261 106.016 157.845 106.096C157.445 106.192 157.045 106.24 156.645 106.24C155.477 106.24 154.621 105.96 154.077 105.4C153.549 104.824 153.285 103.912 153.285 102.664V88.744H156.573ZM167.955 98.344C167.955 97.656 167.755 97.12 167.355 96.736C166.971 96.352 166.459 96.16 165.819 96.16C165.227 96.16 164.707 96.312 164.259 96.616C163.811 96.92 163.483 97.424 163.275 98.128L160.467 97.264C160.739 96.208 161.331 95.36 162.243 94.72C163.171 94.08 164.411 93.76 165.963 93.76C167.019 93.76 167.939 93.928 168.723 94.264C169.507 94.584 170.115 95.072 170.547 95.728C170.995 96.384 171.219 97.208 171.219 98.2V103.072C171.219 103.68 171.507 103.984 172.083 103.984C172.355 103.984 172.611 103.944 172.851 103.864L172.659 105.904C172.243 106.112 171.723 106.216 171.099 106.216C170.539 106.216 170.035 106.12 169.587 105.928C169.139 105.736 168.787 105.448 168.531 105.064C168.275 104.664 168.147 104.168 168.147 103.576V103.48L168.723 103.384C168.627 103.992 168.363 104.512 167.931 104.944C167.499 105.36 166.971 105.68 166.347 105.904C165.739 106.128 165.107 106.24 164.451 106.24C163.635 106.24 162.931 106.12 162.339 105.88C161.747 105.624 161.291 105.256 160.971 104.776C160.651 104.296 160.491 103.704 160.491 103C160.491 102.104 160.779 101.376 161.355 100.816C161.931 100.24 162.755 99.848 163.827 99.64L168.339 98.728L168.315 100.768L165.435 101.344C164.891 101.456 164.475 101.608 164.187 101.8C163.915 101.976 163.779 102.272 163.779 102.688C163.779 103.088 163.923 103.392 164.211 103.6C164.515 103.808 164.875 103.912 165.291 103.912C165.627 103.912 165.955 103.872 166.275 103.792C166.595 103.712 166.883 103.584 167.139 103.408C167.395 103.232 167.595 102.992 167.739 102.688C167.883 102.384 167.955 102.016 167.955 101.584V98.344ZM181.952 106.24C181.216 106.24 180.544 106.088 179.936 105.784C179.344 105.464 178.848 105.032 178.448 104.488C178.064 103.928 177.8 103.304 177.656 102.616L177.992 102.184L177.8 106H174.896V88.744H178.184V97.384L177.872 96.88C178.128 95.984 178.616 95.24 179.336 94.648C180.056 94.056 180.96 93.76 182.048 93.76C182.992 93.76 183.848 94.008 184.616 94.504C185.384 95 185.984 95.712 186.416 96.64C186.864 97.568 187.088 98.696 187.088 100.024C187.088 101.32 186.864 102.432 186.416 103.36C185.984 104.288 185.376 105 184.592 105.496C183.824 105.992 182.944 106.24 181.952 106.24ZM180.968 103.72C181.848 103.72 182.536 103.408 183.032 102.784C183.544 102.144 183.8 101.216 183.8 100C183.8 98.784 183.552 97.864 183.056 97.24C182.56 96.6 181.872 96.28 180.992 96.28C180.416 96.28 179.92 96.432 179.504 96.736C179.088 97.04 178.76 97.472 178.52 98.032C178.296 98.592 178.184 99.256 178.184 100.024C178.184 100.808 178.296 101.48 178.52 102.04C178.76 102.584 179.088 103 179.504 103.288C179.936 103.576 180.424 103.72 180.968 103.72ZM191.599 92.272C190.911 92.272 190.399 92.128 190.063 91.84C189.727 91.536 189.559 91.096 189.559 90.52C189.559 89.928 189.727 89.488 190.063 89.2C190.399 88.896 190.911 88.744 191.599 88.744C192.287 88.744 192.799 88.896 193.135 89.2C193.471 89.488 193.639 89.928 193.639 90.52C193.639 91.096 193.471 91.536 193.135 91.84C192.799 92.128 192.287 92.272 191.599 92.272ZM193.231 94V106H189.943V94H193.231ZM199.956 88.744V102.304C199.956 102.864 200.052 103.256 200.244 103.48C200.436 103.704 200.756 103.816 201.204 103.816C201.476 103.816 201.7 103.8 201.876 103.768C202.052 103.72 202.276 103.656 202.548 103.576L202.26 105.736C201.988 105.896 201.644 106.016 201.228 106.096C200.828 106.192 200.428 106.24 200.028 106.24C198.86 106.24 198.004 105.96 197.46 105.4C196.932 104.824 196.668 103.912 196.668 102.664V88.744H199.956ZM206.036 92.272C205.348 92.272 204.836 92.128 204.5 91.84C204.164 91.536 203.996 91.096 203.996 90.52C203.996 89.928 204.164 89.488 204.5 89.2C204.836 88.896 205.348 88.744 206.036 88.744C206.724 88.744 207.236 88.896 207.572 89.2C207.908 89.488 208.076 89.928 208.076 90.52C208.076 91.096 207.908 91.536 207.572 91.84C207.236 92.128 206.724 92.272 206.036 92.272ZM207.668 94V106H204.38V94H207.668ZM215.402 90.328V102.088C215.402 102.664 215.546 103.088 215.834 103.36C216.138 103.616 216.546 103.744 217.058 103.744C217.458 103.744 217.81 103.688 218.114 103.576C218.418 103.448 218.69 103.28 218.93 103.072L219.458 105.256C219.074 105.56 218.594 105.8 218.018 105.976C217.442 106.152 216.834 106.24 216.194 106.24C215.394 106.24 214.682 106.12 214.058 105.88C213.45 105.64 212.97 105.256 212.618 104.728C212.282 104.2 212.114 103.496 212.114 102.616V91.24L215.402 90.328ZM219.242 94V96.448H209.906V94H219.242ZM232.746 94L227.898 106.744C227.514 107.832 227.082 108.696 226.602 109.336C226.138 109.976 225.594 110.44 224.97 110.728C224.362 111.016 223.634 111.16 222.786 111.16C222.162 111.16 221.586 111.08 221.058 110.92C220.546 110.776 220.098 110.584 219.714 110.344L220.41 107.968C220.714 108.208 221.034 108.376 221.37 108.472C221.706 108.584 222.09 108.64 222.522 108.64C222.97 108.64 223.354 108.544 223.674 108.352C224.01 108.16 224.29 107.776 224.514 107.2L224.922 106.168L223.602 103.048L219.93 94H223.578L225.858 101.2L226.482 103.6L227.226 101.056L229.41 94H232.746Z" fill="black"/>
<defs>
<clipPath id="clip0_1_2259">
<rect width="64" height="64" fill="white" transform="translate(136)"/>
</clipPath>
</defs>
</svg>
